<?xml version="1.0" encoding="UTF-8" standalone="no"?>
<!-- Created with Inkscape (http://www.inkscape.org/) -->

<svg
   xmlns:dc="http://purl.org/dc/elements/1.1/"
   xmlns:cc="http://creativecommons.org/ns#"
   xmlns:rdf="http://www.w3.org/1999/02/22-rdf-syntax-ns#"
   xmlns:svg="http://www.w3.org/2000/svg"
   xmlns="http://www.w3.org/2000/svg"
   xmlns:xlink="http://www.w3.org/1999/xlink"
   xmlns:sodipodi="http://sodipodi.sourceforge.net/DTD/sodipodi-0.dtd"
   xmlns:inkscape="http://www.inkscape.org/namespaces/inkscape"
   width="744.09448819"
   height="1052.3622047"
   id="svg2"
   version="1.1"
   inkscape:version="0.47 r22583"
   sodipodi:docname="New document 1">
  <defs
     id="defs4">
    <inkscape:perspective
       sodipodi:type="inkscape:persp3d"
       inkscape:vp_x="0 : 526.18109 : 1"
       inkscape:vp_y="0 : 1000 : 0"
       inkscape:vp_z="744.09448 : 526.18109 : 1"
       inkscape:persp3d-origin="372.04724 : 350.78739 : 1"
       id="perspective10" />
    <inkscape:perspective
       id="perspective3458"
       inkscape:persp3d-origin="0.5 : 0.33333333 : 1"
       inkscape:vp_z="1 : 0.5 : 1"
       inkscape:vp_y="0 : 1000 : 0"
       inkscape:vp_x="0 : 0.5 : 1"
       sodipodi:type="inkscape:persp3d" />
  </defs>
  <sodipodi:namedview
     id="base"
     pagecolor="#ffffff"
     bordercolor="#666666"
     borderopacity="1.0"
     inkscape:pageopacity="0.0"
     inkscape:pageshadow="2"
     inkscape:zoom="1.979899"
     inkscape:cx="429.08433"
     inkscape:cy="545.03639"
     inkscape:document-units="px"
     inkscape:current-layer="layer1"
     showgrid="true"
     inkscape:window-width="1440"
     inkscape:window-height="825"
     inkscape:window-x="0"
     inkscape:window-y="24"
     inkscape:window-maximized="1">
    <inkscape:grid
       type="xygrid"
       id="grid4605" />
  </sodipodi:namedview>
  <metadata
     id="metadata7">
    <rdf:RDF>
      <cc:Work
         rdf:about="">
        <dc:format>image/svg+xml</dc:format>
        <dc:type
           rdf:resource="http://purl.org/dc/dcmitype/StillImage" />
        <dc:title></dc:title>
      </cc:Work>
    </rdf:RDF>
  </metadata>
  <g
     inkscape:label="Layer 1"
     inkscape:groupmode="layer"
     id="layer1">
    <image
       y="287.71164"
       x="505.52023"
       id="image3460"
       height="125"
       width="125"
       xlink:href="file:///home/jared/inkscape_pasted_image_20100721_085457.png"
       style="fill:#ff0000;stroke:#000000" />
    <path
       style="fill:#000000"
       d="m 639.57147,474.57985 c -21.54665,-7.92872 -34.67118,-30.11242 -31.16655,-52.67918 3.03009,-19.51109 16.20505,-34.26041 35.60692,-39.8618 7.89756,-2.28005 21.72151,-1.58959 29.80265,1.48854 11.90516,4.53471 23.20975,15.83884 27.85834,27.85718 3.09526,8.00239 3.74074,22.17755 1.40311,30.81343 -3.38747,12.51432 -13.52926,24.31024 -26.31558,30.60763 -6.29186,3.09881 -7.29972,3.28468 -19.165,3.53446 -10.53427,0.22175 -13.39765,-0.0579 -18.02389,-1.76026 z m 27.92261,-4.84903 c 0.5215,-2.00989 1.24445,-5.73248 1.60654,-8.27241 0.63597,-4.46097 0.56163,-4.64117 -2.18539,-5.29749 -1.56407,-0.37368 -3.56421,-0.8921 -4.44476,-1.15204 -1.28998,-0.38079 -1.93622,1.13404 -3.3265,7.79749 -0.94902,4.54856 -1.91102,8.9451 -2.13778,9.7701 -0.33505,1.219 0.51987,1.43525 4.56371,1.15435 4.79095,-0.3328 5.01125,-0.48155 5.92418,-4 z m -9.94258,-6.57833 c 0.43277,-1.14181 0.62706,-2.25076 0.43177,-2.46433 -0.19529,-0.21357 -3.21336,2.26143 -6.7068,5.5 -3.58328,3.32184 -5.90777,6.18455 -5.33314,6.56798 1.28155,0.85514 10.55055,-6.81328 11.60817,-9.60365 z m 1.01997,-6.28091 c 0,-0.8994 -2.40711,0.63368 -6.05426,3.85595 -8.62196,7.6175 -13.4979,11.15589 -7.9132,5.74247 2.4929,-2.41644 7.1054,-6.7433 10.25,-9.61525 3.1446,-2.87195 5.71746,-5.76864 5.71746,-6.43709 0,-0.66846 -1.2375,-0.0984 -2.75,1.26685 -1.5125,1.36523 -6.72371,6.02459 -11.58046,10.35413 l -8.83047,7.87191 2.83047,1.17912 c 2.70306,1.12603 3.1793,0.86619 10.58046,-5.77299 4.2625,-3.82366 7.75,-7.62395 7.75,-8.4451 z m 24.72766,7.96651 c 0.26257,-0.68111 -0.0512,-3.44185 -0.69728,-6.13499 l -1.17468,-4.89661 -4.83466,1.54606 c -2.65906,0.85034 -4.67816,2.03608 -4.4869,2.63499 0.19126,0.59891 0.85825,3.68616 1.48219,6.86055 l 1.13444,5.77161 4.04975,-2.27161 c 2.22735,-1.24939 4.26457,-2.82889 4.52714,-3.51 z M 657.4689,450.60266 c 2.41858,-2.23557 4.1374,-4.3247 3.81958,-4.64251 -0.82494,-0.82495 -26.71688,21.80751 -26.09652,22.81128 0.47329,0.76579 11.68486,-8.37822 22.27694,-18.16877 z m -25.89743,13.47381 c 1.0091,-1.21589 0.9706,-1.5 -0.20324,-1.5 -1.84596,0 -5.35769,-3.81083 -6.26444,-6.79799 -0.4214,-1.38823 -0.18163,-2.91964 0.60564,-3.86825 1.10364,-1.32979 0.91295,-1.8967 -1.24519,-3.70201 -2.58434,-2.16182 -3.0045,-5.67968 -1.34752,-11.28238 0.53337,-1.80347 0.1268,-2.26249 -2.51865,-2.84353 -3.97554,-0.87317 -5.76332,-4.26076 -3.99366,-7.56739 0.68129,-1.273 3.23963,-4.45369 5.6852,-7.0682 3.58592,-3.83364 4.25398,-5.09766 3.4518,-6.53107 -0.70612,-1.26176 -0.56395,-2.61035 0.49004,-4.64855 0.8166,-1.57913 1.21819,-3.56573 0.89242,-4.41467 -0.32577,-0.84895 0.79619,-4.00381 2.49324,-7.01082 1.69705,-3.00701 2.91795,-5.63489 2.71311,-5.83973 -1.06038,-1.06037 -8.2219,5.36525 -12.2125,10.95757 -10.19272,14.28382 -11.81011,30.76059 -4.5523,46.37555 2.5797,5.55016 12.09244,17.24147 14.02866,17.24147 0.40288,0 1.2927,-0.675 1.97739,-1.5 z m 59.05659,-5.69081 c 4.6315,-5.85928 8.37382,-12.81324 9.36522,-17.40239 0.66819,-3.09307 0.66787,-3.09333 -7.58492,-6.22879 l -8.25315,-3.13558 -2.37734,2.22878 c -2.01372,1.88789 -2.28008,2.8406 -1.74144,6.22879 0.51155,3.21781 1.84822,5.14868 6.83547,9.87417 3.40976,3.23079 5.07457,5.04472 3.69957,4.03094 -1.375,-1.01377 -3.9625,-3.18292 -5.75,-4.82033 -1.7875,-1.63741 -3.25,-2.45163 -3.25,-1.80937 0,2.89455 3.394,16.22459 4.13099,16.22459 0.45238,0 2.6689,-2.33586 4.9256,-5.19081 z m -49.71402,0.55682 c 2.56262,-0.50988 2.78792,-0.87583 2.28768,-3.7158 -1.86745,-10.60191 -3.83241,-27.68101 -3.33411,-28.97956 0.32331,-0.84253 3.13405,-2.3345 6.24608,-3.31548 l 5.65823,-1.7836 -2.85022,-2.28082 c -2.22136,-1.77758 -4.11891,-2.28191 -8.60023,-2.28578 -4.32192,-0.004 -5.75,-0.36077 -5.75,-1.43758 0,-0.78794 -0.98412,-1.74496 -2.18694,-2.12672 -2.11151,-0.67017 -2.12217,-0.74148 -0.30887,-2.06739 1.83362,-1.34078 1.83219,-1.40683 -0.0602,-2.7906 -3.40043,-2.48645 -6.22512,2.1965 -3.19397,5.29515 1.0051,1.02748 0.5439,1.89934 -2.354,4.45 -4.95375,4.3602 -9.22808,10.36438 -8.58022,12.0527 0.41534,1.08235 2.03241,1.28094 7.11091,0.87329 3.61532,-0.2902 6.57331,-0.25669 6.57331,0.0745 0,0.33117 -1.42913,2.22981 -3.17585,4.21921 -3.57489,4.07157 -3.12152,4.88857 3.31634,5.97623 2.02477,0.34209 4.46621,1.48919 5.42544,2.54912 2.09987,2.32033 1.74421,2.37251 -2.91169,0.42715 -4.12043,-1.72163 -8.25665,-1.95233 -9.1479,-0.51025 -0.3381,0.54704 1.42466,1.53439 3.94098,2.2074 2.50397,0.66971 4.55268,1.56277 4.55268,1.98458 0,0.4218 -1.29547,1.43682 -2.87882,2.2556 -3.53095,1.82593 -4.47635,4.01913 -2.96789,6.88511 2.06548,3.9243 3.00521,4.0699 13.18928,2.04357 z m 16.90743,-12.71127 c 5.52499,-5.16195 5.82224,-7.02477 2.24582,-14.07422 -1.3727,-2.70571 -2.49582,-5.46311 -2.49582,-6.12755 0,-0.66445 -0.58221,-1.69127 -1.29381,-2.28184 -0.97346,-0.80791 -2.69427,0.061 -6.95013,3.50931 l -5.65634,4.58308 0.5135,10.11824 c 0.28242,5.56503 0.72505,11.15662 0.98362,12.42575 l 0.47013,2.30751 3.71652,-3.0112 c 2.04408,-1.65616 5.85401,-5.00824 8.46651,-7.44908 z m 20.53999,7.26863 c 1.69863,-0.59215 2.91736,-1.60465 2.70827,-2.25 -0.20908,-0.64536 -0.8776,-3.70772 -1.48559,-6.80527 l -1.10543,-5.63189 -3.91409,0.9935 c -2.65527,0.67398 -4.88454,0.6552 -6.93152,-0.0584 -1.65958,-0.57854 -3.20239,-0.74126 -3.42847,-0.36161 -0.98526,1.65453 -2.74934,12.44513 -2.24811,13.75131 0.67572,1.76091 11.69483,2.00429 16.40494,0.36233 z m -0.82982,-17.55891 c 7.87517,-4.65198 8.00414,-17.37053 0.21838,-21.5361 -3.3941,-1.81592 -10.20137,-1.51474 -13.41931,0.59374 -1.46068,0.95707 -3.41516,3.72853 -4.34329,6.1588 -1.49721,3.92039 -1.52723,4.83979 -0.26621,8.15299 2.69607,7.08369 11.49684,10.36009 17.81043,6.63057 z m -10.38874,-6.93589 c -4.39266,-4.39266 0.93118,-11.84801 6.4919,-9.09105 3.0189,1.49675 3.82523,6.63106 1.41925,9.03705 -2.0632,2.06319 -5.87594,2.08922 -7.91115,0.054 z m 7.22857,-0.62857 c 2.805,-2.805 0.69173,-7.8 -3.3,-7.8 -2.68046,0 -4.5,1.81954 -4.5,4.5 0,2.68046 1.81954,4.5 4.5,4.5 1.155,0 2.64,-0.54 3.3,-1.2 z m 27.18635,1.45 c -0.0205,-10.13965 -0.51039,-11.25 -4.96341,-11.25 -6.79809,0 -13.02004,1.19568 -12.29836,2.36338 0.37318,0.60382 0.70032,3.0572 0.72697,5.45195 l 0.0485,4.3541 7,2.81123 c 3.85,1.54617 7.5625,2.85805 8.25,2.91528 0.88804,0.0739 1.24605,-1.85053 1.23635,-6.64594 z m -42.18724,-10.571 c 2.27285,-6.28543 2.00749,-6.56447 -6.54911,-6.88694 -7.43843,-0.28032 -7.76084,-0.39257 -8.01969,-2.79206 -0.14833,-1.375 -0.50622,-3.9625 -0.79532,-5.75 l -0.52562,-3.25 -6.89567,0 c -3.79261,0 -7.1516,0.4141 -7.4644,0.92023 -0.5176,0.8375 26.70007,21.07977 28.34377,21.07977 0.38783,0 1.24555,-1.49445 1.90604,-3.321 z m 34.45089,-1.66535 c 4.86964,-0.0116 5.75,-0.2898 5.75,-1.81731 0,-2.11174 -4.85584,-12.19634 -5.87266,-12.19634 -2.09255,0 -23.24872,7.86 -21.32768,7.92372 2.96896,0.0985 7.18249,2.29408 9.66338,5.03544 1.27513,1.409 2.66977,1.97278 3.99764,1.61603 1.12163,-0.30133 4.62682,-0.55403 7.78932,-0.56154 z m -29.48972,-3.84433 c 0.84853,-0.53867 -3.62297,-4.29082 -13.68653,-11.48469 -8.22074,-5.87655 -15.15591,-10.68463 -15.4115,-10.68463 -0.88676,0 -4.49304,6.83588 -3.91253,7.41639 0.32099,0.32098 3.39786,0.58361 6.83749,0.58361 l 6.25388,0 0.63436,3.25 c 0.3489,1.7875 0.87041,4.4875 1.15891,6 0.51612,2.70581 0.64379,2.75 7.9451,2.75 5.92937,0 7.42054,0.30143 7.42054,1.5 0,1.66504 0.86238,1.87415 2.76028,0.66932 z M 678.57,407.45181 c 6.87581,-2.26856 12.93726,-4.52685 13.46989,-5.01842 0.60346,-0.55693 -0.76656,-2.62875 -3.63529,-5.49747 l -4.60371,-4.60371 -11.86471,6.71122 c -6.52559,3.69117 -12.08971,6.93647 -12.36471,7.21177 -0.47873,0.47925 4.96745,5.30603 5.99853,5.3163 0.27419,0.003 6.12419,-1.85113 13,-4.11969 z m -8.85996,-8.45217 c 6.52379,-3.61726 11.86143,-6.89524 11.86143,-7.2844 0,-1.0823 -5.13426,-3.876 -10.07217,-5.48056 -9.78539,-3.17973 -9.09923,-3.38313 -16.50638,4.89306 -6.20447,6.9324 -6.62256,7.67619 -5.14521,9.15354 1.47735,1.47735 2.28309,1.04192 9.91589,-5.35862 4.56933,-3.83165 8.98287,-7.31117 9.80787,-7.73228 0.825,-0.4211 -0.7471,1.18099 -3.49355,3.56022 -2.74646,2.37923 -6.79646,5.98817 -9,8.01988 -3.91197,3.6069 -3.95929,3.72995 -2.00645,5.2182 1.1,0.8383 2.17486,1.53849 2.38857,1.55599 0.21372,0.0175 5.72622,-2.92777 12.25,-6.54503 z m -17.54659,-6.67317 c 7.98614,-8.34594 8.19988,-8.75 4.62865,-8.75 -2.54222,0 -3.75221,0.9796 -7.59132,6.14585 -4.09754,5.51403 -4.92766,7.85415 -2.78613,7.85415 0.39883,0 2.98579,-2.3625 5.7488,-5.25 z m -4.62197,-2.32651 c 2.31567,-3.06708 3.97865,-5.80817 3.69551,-6.0913 -2.17957,-2.17957 -10.54567,6.93179 -9.3134,10.14304 0.32181,0.83862 0.77017,1.52477 0.99635,1.52477 0.22618,0 2.30588,-2.50943 4.62154,-5.57651 z m -5.10251,-0.92349 c 2.5793,-4.37159 0.42864,-4.93444 -2.86573,-0.75 -1.22825,1.56009 -1.92696,1.99279 -1.6148,1 0.59752,-1.9003 -0.85732,-2.41601 -1.92809,-0.68347 -0.59698,0.96593 2.10804,3.8243 3.69234,3.90167 0.35818,0.0175 1.5805,-1.5432 2.71628,-3.4682 z"
       id="path3468" />
    <path
       style="fill:#000000"
       d="m 525.91379,509.80005 c -16.9679,-6.97523 -27.84535,-20.52762 -30.56039,-38.07567 -2.02131,-13.06435 1.62247,-26.83572 9.77954,-36.96096 5.54613,-6.88432 13.15386,-12.51434 21.12051,-15.63 7.97254,-3.11796 25.10557,-3.20114 33.27155,-0.16153 22.51404,8.38036 35.5317,31.78629 30.87664,55.51659 -3.19096,16.2667 -15.61874,30.323 -31.70231,35.85656 -8.67873,2.98592 -24.85018,2.71711 -32.78554,-0.54499 z m 27.41072,-0.98914 c 0.77408,-0.4784 2.97626,-10.66873 3.29997,-15.27017 0.28305,-4.02364 1.56501,-2.38049 2.73064,3.5 2.00879,10.13413 1.56458,9.64116 6.32249,7.01655 2.99899,-1.65434 4.34417,-3.13336 4.8041,-5.28213 0.35135,-1.64143 0.69205,-2.19692 0.75712,-1.23442 0.1899,2.80874 1.68958,2.06652 6.06157,-3 4.45583,-5.16367 8.67337,-12.96501 9.62759,-17.8085 0.4985,-2.5303 0.19901,-3.25968 -1.73414,-4.22342 -2.27384,-1.13358 -2.26272,-1.14927 0.4133,-0.58309 l 2.75,0.58183 -0.0153,-7.85841 c -0.008,-4.32213 -0.35462,-8.39202 -0.76933,-9.0442 -0.41472,-0.65218 -2.99532,-1.35857 -5.73469,-1.56975 l -4.98068,-0.38396 5.31739,-0.18025 c 5.02245,-0.17025 5.27873,-0.30505 4.62049,-2.43025 -1.15095,-3.71597 -5.41613,-11.75 -6.23794,-11.75 -0.4215,0 -5.92642,1.72818 -12.23316,3.8404 -11.32072,3.79149 -11.4171,3.84974 -7.56632,4.57354 2.22576,0.41836 5.12586,1.95853 6.75446,3.58713 1.5697,1.5697 3.63949,3.05941 4.59954,3.31046 1.52417,0.39858 1.53548,0.47118 0.0892,0.57247 -1.18502,0.083 -1.51041,0.7563 -1.14345,2.366 0.28212,1.2375 -0.54751,0.23175 -1.84362,-2.23499 -2.97332,-5.65883 -7.96922,-7.93195 -13.93389,-6.33989 -2.1221,0.56642 -3.64661,0.68723 -3.38779,0.26846 0.25881,-0.41876 -6.25006,-5.59013 -14.46415,-11.49191 -12.96012,-9.31178 -14.74539,-10.91986 -13.50272,-12.16253 1.67638,-1.67637 1.8011,-2.28914 0.46594,-2.28914 -1.16203,0 -9.09369,14.0943 -8.48548,15.07841 0.80411,1.30107 27.20425,19.92159 28.24479,19.92159 0.57205,0 1.22883,-0.3375 1.45952,-0.75 0.23069,-0.4125 0.26819,-0.1507 0.0833,0.58179 -0.18485,0.73248 -0.3361,2.01983 -0.3361,2.86078 0,1.12149 -0.47429,0.94328 -1.77957,-0.66868 l -1.77957,-2.19768 -5.84794,4.81435 -5.84794,4.81434 0.62751,7.42343 c 0.34513,4.08288 0.62751,9.60553 0.62751,12.27255 0,2.66702 0.38187,4.84912 0.8486,4.84912 0.46672,0 4.40422,-3.12923 8.75,-6.95385 9.17028,-8.07056 10.25481,-10.66307 6.70518,-16.02828 -1.26708,-1.91518 -2.30378,-3.89423 -2.30378,-4.39789 0,-0.50366 1.02601,0.60675 2.28001,2.46757 2.71169,4.02387 6.01816,5.8776 10.51965,5.89771 5.93266,0.0265 12.0252,-4.77821 12.30002,-9.70008 0.069,-1.23516 0.30644,-1.04667 0.77076,0.61179 0.48456,1.73073 2.13115,2.95174 5.92405,4.39293 2.88913,1.09779 5.08262,2.16633 4.87441,2.37454 -0.20821,0.20821 -2.91782,-0.59316 -6.02136,-1.78081 l -5.6428,-2.15938 -2.24229,2.85062 c -1.23327,1.56784 -2.1142,3.76739 -1.95763,4.88787 0.15951,1.14149 -0.0648,1.59757 -0.51007,1.03726 -0.43711,-0.55 -4.01782,-1 -7.95713,-1 l -7.16238,0 -1.44355,7.25874 -1.44356,7.25874 3.10593,0.98787 3.10594,0.98787 -3.21085,-0.46378 c -2.97666,-0.42995 -3.25656,-0.22007 -3.8377,2.87766 -0.34477,1.8378 -1.16748,3.28552 -1.82825,3.21717 -1.84482,-0.19082 -13.91325,11.07844 -12.68019,11.84051 1.12615,0.696 9.11098,-5.35806 11.72319,-8.88846 1.44736,-1.95611 1.49754,-1.84475 0.86677,1.92368 -0.36823,2.2 -0.93022,5.08277 -1.24885,6.40615 -0.56509,2.34705 -0.46311,2.39023 4.15121,1.75777 2.60179,-0.35662 5.0912,-0.8713 5.53203,-1.14375 z m 15.69768,-16.44497 c -0.56738,-2.83689 -0.75586,-2.9395 -3.58667,-1.95267 -1.6433,0.57285 -3.7957,0.83184 -4.7831,0.57551 -1.37783,-0.35767 -1.26055,-0.49301 0.50439,-0.58204 1.26481,-0.0638 3.57968,-0.77793 5.14416,-1.58695 2.83734,-1.46724 2.84619,-1.46195 3.51482,2.10219 0.36868,1.96522 0.47568,3.76777 0.23779,4.00567 -0.2379,0.23789 -0.70202,-0.91487 -1.03139,-2.56171 z m 4.56778,-5.65275 c -4.89263,-4.27996 -5.24051,-4.42623 -5.35114,-2.25 -0.10024,1.97213 -0.23488,1.86945 -0.88168,-0.67245 -0.8873,-3.48705 -1.13876,-7.84766 -0.31716,-5.5 0.28872,0.825 3.2907,4.06792 6.67106,7.2065 7.35625,6.83009 7.27136,7.68267 -0.12108,1.21595 z M 554.01214,464.462 c -0.91025,-1.00581 -1.65499,-2.77366 -1.65499,-3.92857 0,-2.27078 2.43409,-5.24269 4.29393,-5.24269 0.6331,0 0.15095,0.70052 -1.07142,1.5567 -2.41791,1.69357 -2.93181,5.334 -1.02251,7.2433 1.9093,1.9093 5.54973,1.3954 7.2433,-1.02251 0.85618,-1.22237 1.5567,-1.70452 1.5567,-1.07142 0,1.91558 -3.00009,4.29393 -5.41644,4.29393 -1.25047,0 -3.01833,-0.82293 -3.92857,-1.82874 z m 5.34501,-8.17126 c -1.29269,-0.8354 -1.26629,-0.97149 0.19098,-0.98469 0.93004,-0.008 1.9691,0.43469 2.30902,0.98469 0.78218,1.2656 -0.54163,1.2656 -2.5,0 z m -12.02981,-2.94431 c 0.57231,-1.06936 1.53482,-2.24977 2.13891,-2.62312 0.6041,-0.37335 0.32492,0.50159 -0.62038,1.94431 -2.00163,3.05486 -3.03812,3.51819 -1.51853,0.67881 z m 0.0298,-3.88902 c 0,-0.78456 -2.44159,-1.16667 -7.45469,-1.16667 l -7.45468,0 -0.64654,-3.44633 c -0.35559,-1.89548 -0.41151,-4.03298 -0.12426,-4.75 0.28725,-0.71702 0.5578,-0.10297 0.60122,1.36454 0.15919,5.38015 0.78857,5.83179 8.12692,5.83179 6.15483,0 9.18773,1.09763 7.55217,2.7332 -0.33008,0.33007 -0.60014,0.0751 -0.60014,-0.56653 z m -23,-13.16667 -6.5,-0.6548 6.75,-0.1726 c 3.9484,-0.10096 6.75,0.24245 6.75,0.8274 0,0.55 -0.1125,0.92233 -0.25,0.8274 -0.1375,-0.0949 -3.175,-0.46726 -6.75,-0.8274 z m 13.78678,64.25 c 4.52251,-4.2625 8.2206,-8.35912 8.21798,-9.10359 -0.003,-0.79815 -1.54358,-0.008 -3.75476,1.92504 -2.0625,1.80325 -6.31463,5.52984 -9.44918,8.28131 -5.00239,4.39105 -6.34641,6.64724 -3.95979,6.64724 0.39765,0 4.42323,-3.4875 8.94575,-7.75 z m -1.2234,-3.49473 c 5.74014,-5.08459 10.43662,-9.84236 10.43662,-10.5728 0,-1.42405 -1.64496,-0.16851 -14.82778,11.31753 -4.41874,3.85 -8.06516,7.3375 -8.10315,7.75 -0.1922,2.08689 2.99396,-0.0793 12.49431,-8.49473 z m -1.11034,-3.14546 c 6.90083,-5.98961 12.54696,-11.54317 12.54696,-12.34124 0,-0.80522 -3.45554,1.59382 -7.76392,5.39019 -4.27016,3.76268 -10.34516,9.06457 -13.5,11.78197 -5.19112,4.47132 -7.28283,7.26693 -4.78304,6.3926 0.52416,-0.18333 6.59916,-5.23392 13.5,-11.22352 z m -17.68121,6.21836 c 0.89577,-0.89577 0.64842,-1.4291 -1.05,-2.26391 -3.21645,-1.58096 -5.90749,-7.34883 -4.58316,-9.82337 0.84014,-1.56981 0.53904,-2.46785 -1.56304,-4.66195 -1.432,-1.49468 -2.34884,-2.9724 -2.03743,-3.28381 0.31141,-0.31141 0.72918,-2.56624 0.92837,-5.01074 0.34585,-4.24422 0.21324,-4.4984 -2.94208,-5.63937 -4.5984,-1.66281 -5.06722,-4.50176 -1.57612,-9.54421 1.56154,-2.25545 4.02733,-5.20618 5.47952,-6.55719 2.06957,-1.92535 2.5089,-3.05495 2.03221,-5.22527 -0.38441,-1.75022 -0.0395,-3.5807 0.9374,-4.97547 1.06708,-1.52347 1.23321,-2.58293 0.53662,-3.42226 -0.71141,-0.85719 0.0806,-3.19788 2.68589,-7.93758 3.47719,-6.32597 3.55302,-6.64605 1.28741,-5.43412 -4.5075,2.41115 -12.73488,11.85518 -15.86241,18.2081 -8.48573,17.23696 -5.53503,37.03895 7.56582,50.77383 3.13149,3.28303 5.98511,5.96915 6.34139,5.96915 0.35628,0 1.1751,-0.52732 1.81961,-1.17183 z m 11.59641,-5.84765 c 0.48796,-0.45916 -0.11132,-7.67748 -1.36824,-16.48052 -1.25359,-8.77967 -1.85491,-16.01305 -1.36824,-16.45884 0.47753,-0.43742 3.23074,-1.5618 6.11824,-2.49861 2.8875,-0.9368 5.24715,-2.00462 5.24368,-2.37292 -0.017,-1.8006 -6.59331,-4.16963 -11.57472,-4.16963 -4.0369,0 -5.41896,-0.36538 -5.41896,-1.43261 0,-0.78794 -0.98412,-1.74496 -2.18694,-2.12672 -2.14215,-0.67989 -2.14727,-0.72351 -0.25,-2.12922 1.91567,-1.41935 1.91562,-1.4509 -0.004,-2.87328 -2.60631,-1.931 -3.05756,-1.83385 -4.31655,0.92935 -0.85244,1.87089 -0.74391,2.70232 0.51738,3.96362 1.46147,1.46146 1.21352,1.95766 -2.93955,5.88248 -5.63056,5.32111 -8.22553,9.28759 -7.43091,11.35834 0.51271,1.33611 1.67631,1.47312 7.35045,0.86547 7.42116,-0.79474 7.36319,-0.95024 1.95299,5.23854 -2.4094,2.75615 -1.6772,3.91675 3.02786,4.79943 4.55534,0.85458 7.27947,2.22977 7.27947,3.67479 0,0.62835 -1.03055,0.40459 -2.46482,-0.53518 -2.98616,-1.95661 -10.9092,-2.23778 -10.28565,-0.36501 0.22891,0.6875 1.27891,1.4168 2.33334,1.62068 1.05442,0.20387 3.00712,0.78469 4.33934,1.29072 l 2.4222,0.92004 -3.75709,2.55301 c -3.22705,2.19284 -3.66323,2.92696 -3.09181,5.20369 1.20359,4.79549 2.32432,5.37678 8.94051,4.63722 3.33519,-0.37281 6.45469,-1.04549 6.93222,-1.49484 z m 35.63029,-51.10518 c 6.87581,-2.26856 12.93726,-4.52685 13.46989,-5.01842 0.60343,-0.55691 -0.77482,-2.63701 -3.65688,-5.51906 l -4.62529,-4.6253 -11.34313,6.3113 c -15.10898,8.40662 -14.50941,7.8097 -10.6126,10.56572 1.79821,1.27179 3.49382,2.33441 3.76801,2.36138 0.27419,0.027 6.12419,-1.80706 13,-4.07562 z m -12.59477,-6.29426 c 4.45864,-2.43041 10.08745,-5.54406 12.50845,-6.91922 l 4.40183,-2.50028 -3.40702,-2.0736 c -1.87386,-1.14048 -6.54419,-3.04513 -10.37851,-4.23257 l -6.97149,-2.15898 -7.26485,7.90179 c -3.99567,4.34598 -7.271,7.55293 -7.27851,7.12656 -0.008,-0.42638 2.79884,-3.80138 6.23634,-7.5 l 6.25,-6.72478 -2.98652,-0.33924 c -2.43024,-0.27606 -3.56949,0.35513 -6.11634,3.38872 -1.7214,2.05038 -3.88063,4.99899 -4.79828,6.55245 l -1.66846,2.82448 6.23488,4.5368 c 3.42919,2.49523 6.4367,4.53679 6.68337,4.53679 0.24666,0 4.09646,-1.98852 8.55511,-4.41892 z m -12.85376,-0.45459 c 3.51199,-3.22921 15.218,-12.8885 16.45,-13.57382 1.33333,-0.74169 1.33333,-0.6654 0,0.68662 -3.16789,3.21229 -15.92776,13.76071 -16.64561,13.76071 -0.41491,0 -0.32689,-0.39308 0.19561,-0.87351 z m -5.05,-11.12649 c 4.30348,-5.5927 4.46019,-5.99896 2.30845,-5.98469 -3.17992,0.0211 -4.07675,0.78744 -7.18365,6.13848 -1.99876,3.44247 -2.36666,4.78842 -1.41344,5.17105 0.70875,0.2845 1.37484,0.55279 1.48019,0.59621 0.10536,0.0434 2.26916,-2.62105 4.80845,-5.92105 z m -5.35053,-0.76709 2.04693,-3.23291 -2.07252,0 c -2.11566,0 -5.65015,5.14039 -4.3965,6.39405 1.08164,1.08163 2.27662,0.2274 4.42209,-3.16114 z"
       id="path3464" />
    <g
       id="g4350"
       transform="translate(-46.972093,-136.87567)">
      <path
         transform="matrix(0.96944166,0,0,0.96944166,13.627688,14.332629)"
         d="m 461.13462,502.08157 c 0,26.91829 -21.59544,48.73986 -48.23478,48.73986 -26.63933,0 -48.23478,-21.82157 -48.23478,-48.73986 0,-26.91828 21.59545,-48.73986 48.23478,-48.73986 26.63934,0 48.23478,21.82158 48.23478,48.73986 z"
         sodipodi:ry="48.739861"
         sodipodi:rx="48.234783"
         sodipodi:cy="502.08157"
         sodipodi:cx="412.89984"
         id="path3516"
         style="fill:none;stroke:#000000;stroke-width:2.70000005;stroke-linecap:round;stroke-miterlimit:4;stroke-opacity:1;stroke-dasharray:none"
         sodipodi:type="arc" />
      <path
         d="m 433.35545,497.03082 c 0,2.78946 -2.2613,5.05077 -5.05076,5.05077 -2.78946,0 -5.05077,-2.26131 -5.05077,-5.05077 0,-2.78946 2.26131,-5.05076 5.05077,-5.05076 2.78946,0 5.05076,2.2613 5.05076,5.05076 z"
         sodipodi:ry="5.0507627"
         sodipodi:rx="5.0507627"
         sodipodi:cy="497.03082"
         sodipodi:cx="428.30469"
         id="path4290"
         style="fill:none;stroke:#000000;stroke-width:1.10000002;stroke-linecap:round;stroke-miterlimit:4;stroke-opacity:1;stroke-dasharray:none"
         sodipodi:type="arc" />
      <path
         d="m 441.18413,497.78842 c 0,7.11312 -5.76632,12.87945 -12.87944,12.87945 -7.11312,0 -12.87945,-5.76633 -12.87945,-12.87945 0,-7.11312 5.76633,-12.87944 12.87945,-12.87944 7.11312,0 12.87944,5.76632 12.87944,12.87944 z"
         sodipodi:ry="12.879444"
         sodipodi:rx="12.879444"
         sodipodi:cy="497.78842"
         sodipodi:cx="428.30469"
         id="path4292"
         style="fill:none;stroke:#000000;stroke-width:1;stroke-linecap:round;stroke-miterlimit:4;stroke-opacity:1;stroke-dasharray:none"
         sodipodi:type="arc" />
      <path
         id="path4294"
         d="m 424.01153,485.41407 -32.32488,-22.98097 2.0203,-4.29315 5.80838,-2.27285 -5.55584,8.08122"
         style="fill:none;stroke:#000000;stroke-width:1px;stroke-linecap:butt;stroke-linejoin:miter;stroke-opacity:1" />
      <path
         id="path4296"
         d="m 396.98995,465.96863 7.32361,-10.6066"
         style="fill:none;stroke:#000000;stroke-width:1px;stroke-linecap:butt;stroke-linejoin:miter;stroke-opacity:1" />
      <path
         id="path4298"
         d="m 411.8897,453.8468 -11.11168,14.64721"
         style="fill:none;stroke:#000000;stroke-width:1px;stroke-linecap:butt;stroke-linejoin:miter;stroke-opacity:1" />
      <path
         id="path4300"
         d="m 404.56609,471.27193 15.15229,-16.92005"
         style="fill:none;stroke:#000000;stroke-width:1px;stroke-linecap:butt;stroke-linejoin:miter;stroke-opacity:1" />
      <path
         id="path4302"
         d="m 409.36432,474.30239 20.45559,-17.1726"
         style="fill:none;stroke:#000000;stroke-width:1px;stroke-linecap:butt;stroke-linejoin:miter;stroke-opacity:1" />
      <path
         id="path4304"
         d="m 415.42523,478.84807 26.01143,-15.65736"
         style="fill:none;stroke:#000000;stroke-width:1px;stroke-linecap:butt;stroke-linejoin:miter;stroke-opacity:1" />
      <path
         id="path4306"
         d="m 423.50646,484.90899 27.77919,-10.10153"
         style="fill:none;stroke:#000000;stroke-width:1px;stroke-linecap:butt;stroke-linejoin:miter;stroke-opacity:1" />
      <path
         id="path4308"
         d="m 439.6689,490.9699 19.19289,-1.01015"
         style="fill:none;stroke:#000000;stroke-width:1px;stroke-linecap:butt;stroke-linejoin:miter;stroke-opacity:1" />
      <path
         id="path4310"
         d="m 440.42651,503.09174 19.1929,7.07106"
         style="fill:none;stroke:#000000;stroke-width:1px;stroke-linecap:butt;stroke-linejoin:miter;stroke-opacity:1" />
      <path
         id="path4312"
         d="m 435.37575,508.39504 6.81853,29.04188"
         style="fill:none;stroke:#000000;stroke-width:1px;stroke-linecap:butt;stroke-linejoin:miter;stroke-opacity:1" />
      <path
         id="path4314"
         d="m 412.89985,548.29606 7.82869,-39.64849"
         style="fill:none;stroke:#000000;stroke-width:1px;stroke-linecap:butt;stroke-linejoin:miter;stroke-opacity:1" />
      <path
         id="path4316"
         d="m 438.15367,516.98133 12.6269,12.12183"
         style="fill:none;stroke:#000000;stroke-width:1px;stroke-linecap:butt;stroke-linejoin:miter;stroke-opacity:1" />
      <path
         id="path4318"
         d="m 418.96077,515.4661 -28.78935,25.75889"
         style="fill:none;stroke:#000000;stroke-width:1px;stroke-linecap:butt;stroke-linejoin:miter;stroke-opacity:1" />
      <path
         id="path4320"
         d="m 392.94934,542.99276 25.50635,-22.47589"
         style="fill:none;stroke:#000000;stroke-width:1px;stroke-linecap:butt;stroke-linejoin:miter;stroke-opacity:1" />
      <path
         id="path4322"
         d="m 416.94046,525.31509 -20.70812,19.1929"
         style="fill:none;stroke:#000000;stroke-width:1px;stroke-linecap:butt;stroke-linejoin:miter;stroke-opacity:1" />
      <path
         id="path4324"
         d="m 400.02041,545.2656 16.66752,-14.14213"
         style="fill:none;stroke:#000000;stroke-width:1px;stroke-linecap:butt;stroke-linejoin:miter;stroke-opacity:1" />
      <path
         id="path4326"
         d="m 414.66762,537.68946 -10.10153,9.09137 8.08123,1.51523 2.0203,-10.6066 z"
         style="fill:#000000;stroke:#000000;stroke-width:1px;stroke-linecap:butt;stroke-linejoin:miter;stroke-opacity:1" />
      <path
         id="path4328"
         d="m 424.01153,546.78083 3.78807,-19.1929 4.79823,16.66752 -8.5863,2.52538 z"
         style="fill:#000000;stroke:#000000;stroke-width:1px;stroke-linecap:butt;stroke-linejoin:miter;stroke-opacity:1" />
      <path
         id="path4330"
         d="m 391.68665,462.68563 -7.07107,12.12183 30.80965,21.46575"
         style="fill:none;stroke:#000000;stroke-width:1px;stroke-linecap:butt;stroke-linejoin:miter;stroke-opacity:1" />
      <path
         id="path4332"
         d="m 418.45569,489.20214 0,-5.05076 -15.65736,0.50507 -1.51523,-12.62691 -14.89975,0.25254"
         style="fill:none;stroke:#000000;stroke-width:1px;stroke-linecap:butt;stroke-linejoin:miter;stroke-opacity:1" />
      <path
         sodipodi:nodetypes="cccscsc"
         id="path4334"
         d="m 387.26724,476.6068 -5.17704,6.78696 4.04061,3.53553 c -5.95749,5.57027 -14.34018,11.03171 -11.86929,17.1726 0.64833,1.61129 7.57614,3.03046 7.57614,3.03046 -0.92597,2.18866 -3.28146,5.9035 -2.77792,6.56599 0.70412,0.92638 13.44313,-0.67643 16.16244,3.78807"
         style="fill:none;stroke:#000000;stroke-width:1px;stroke-linecap:butt;stroke-linejoin:bevel;stroke-opacity:1" />
      <path
         sodipodi:nodetypes="ccsscc"
         id="path4336"
         d="m 386.13081,538.69961 5.93464,-4.41942 c -3.65459,-0.28767 -5.19419,-0.80021 -7.08847,-3.51978 -2.4112,-3.46171 -2.19554,-4.59769 -2.0029,-5.44532 l 0.63135,-2.77792 c -1.31416,-2.92912 -6.94387,-4.70325 -2.02031,-8.08122"
         style="fill:none;stroke:#000000;stroke-width:1px;stroke-linecap:butt;stroke-linejoin:miter;stroke-opacity:1" />
      <path
         id="path4338"
         d="m 400.77802,530.87093 -4.79822,-32.82996 13.63706,-5.05076 3.03046,1.76777 -11.36422,8.83883 1.01015,26.51651 -1.51523,0.75761 z"
         style="fill:#000000;stroke:#000000;stroke-width:1px;stroke-linecap:butt;stroke-linejoin:miter;stroke-opacity:1" />
      <path
         sodipodi:nodetypes="cccccc"
         id="path4340"
         d="m 392.44426,480.86838 11.8693,8.08122 -12.37437,0 0.30134,-2.98024 -4.34195,-1.81798 4.54568,-3.283 z"
         style="fill:#000000;stroke:#000000;stroke-width:1px;stroke-linecap:butt;stroke-linejoin:miter;stroke-opacity:1" />
      <path
         sodipodi:nodetypes="ccccc"
         id="path4342"
         d="m 374.57719,503.34427 c 5.25933,0.40823 9.53555,-0.0405 14.36311,-0.15783 -3.96566,3.64307 -8.98469,7.9197 -9.65641,10.25936 l 2.55377,-6.31345 c -2.74248,-0.92641 -5.64542,-1.50875 -7.26047,-3.78808 z"
         style="fill:#000000;stroke:#000000;stroke-width:1px;stroke-linecap:butt;stroke-linejoin:round;stroke-opacity:1" />
      <path
         sodipodi:nodetypes="ccccc"
         id="path4344"
         d="m 379.9752,517.92836 8.15798,1.78493 -5.08157,4.88396 1.0589,-2.31262 -4.13531,-4.35627 z"
         style="fill:#000000;stroke:#000000;stroke-width:1px;stroke-linecap:butt;stroke-linejoin:round;stroke-opacity:1" />
      <path
         sodipodi:nodetypes="cc"
         id="path4346"
         d="m 417.44554,526.07271 c 4.95902,3.25526 17.76939,1.87959 21.71828,-2.02031"
         style="fill:none;stroke:#000000;stroke-width:1px;stroke-linecap:butt;stroke-linejoin:miter;stroke-opacity:1" />
      <path
         sodipodi:nodetypes="cccccc"
         id="path4348"
         d="m 386.08346,539.03107 6.99215,-5.12968 c -2.26109,0.081 -4.66562,0.12048 -6.34502,-1.29426 5.03712,0.54462 10.286,-0.96985 14.83661,-1.64149 l -11.52205,10.13308 -3.96169,-2.06765 z"
         style="fill:#000000;stroke:none" />
    </g>
    <g
       id="g4496"
       transform="translate(-82.857143,6.0714286)"
       inkscape:export-filename="/home/jared/clone/codetalker/logo.png"
       inkscape:export-xdpi="108.84573"
       inkscape:export-ydpi="108.84573">
      <text
         id="text4481"
         style="font-size:6px;font-style:normal;font-weight:normal;fill:#000000;fill-opacity:1;stroke:none;font-family:Bitstream Vera Sans"
         xml:space="preserve"><textPath
           id="textPath4485"
           xlink:href="#path4478"><tspan
   id="tspan4483">01100011011011110110010001100101011101000110000101101100011010110110010101110010</tspan></textPath></text>
      <path
         sodipodi:type="arc"
         style="fill:none;stroke:none"
         id="path4385"
         sodipodi:cx="412.89984"
         sodipodi:cy="502.08157"
         sodipodi:rx="48.234783"
         sodipodi:ry="48.739861"
         d="m 461.13462,502.08157 c 0,26.91829 -21.59544,48.73986 -48.23478,48.73986 -26.63933,0 -48.23478,-21.82157 -48.23478,-48.73986 0,-26.91828 21.59545,-48.73986 48.23478,-48.73986 26.63934,0 48.23478,21.82158 48.23478,48.73986 z"
         transform="matrix(0.96944166,0,0,0.96944166,-16.676888,25.949383)" />
      <path
         transform="translate(-30.304576,11.616754)"
         sodipodi:type="arc"
         style="fill:none;stroke:#000000;stroke-width:1.10000002;stroke-linecap:round;stroke-miterlimit:4;stroke-opacity:1;stroke-dasharray:none"
         id="path4387"
         sodipodi:cx="428.30469"
         sodipodi:cy="497.03082"
         sodipodi:rx="5.0507627"
         sodipodi:ry="5.0507627"
         d="m 433.35545,497.03082 c 0,2.78946 -2.2613,5.05077 -5.05076,5.05077 -2.78946,0 -5.05077,-2.26131 -5.05077,-5.05077 0,-2.78946 2.26131,-5.05076 5.05077,-5.05076 2.78946,0 5.05076,2.2613 5.05076,5.05076 z" />
      <path
         transform="translate(-30.304576,11.616754)"
         sodipodi:type="arc"
         style="fill:none;stroke:#000000;stroke-width:1;stroke-linecap:round;stroke-miterlimit:4;stroke-opacity:1;stroke-dasharray:none"
         id="path4389"
         sodipodi:cx="428.30469"
         sodipodi:cy="497.78842"
         sodipodi:rx="12.879444"
         sodipodi:ry="12.879444"
         d="m 441.18413,497.78842 c 0,7.11312 -5.76632,12.87945 -12.87944,12.87945 -7.11312,0 -12.87945,-5.76633 -12.87945,-12.87945 0,-7.11312 5.76633,-12.87944 12.87945,-12.87944 7.11312,0 12.87944,5.76632 12.87944,12.87944 z" />
      <path
         sodipodi:nodetypes="ccccc"
         style="fill:none;stroke:#000000;stroke-width:1px;stroke-linecap:butt;stroke-linejoin:miter;stroke-opacity:1"
         d="m 368.38486,468.75617 -4.72995,6.8089 m 30.05204,21.46575 -32.32488,-22.98097 1.55155,-3.11011"
         id="path4391" />
      <path
         style="fill:none;stroke:#000000;stroke-width:1px;stroke-linecap:butt;stroke-linejoin:miter;stroke-opacity:1"
         d="m 366.68537,477.58538 7.32361,-10.6066"
         id="path4393" />
      <path
         style="fill:none;stroke:#000000;stroke-width:1px;stroke-linecap:butt;stroke-linejoin:miter;stroke-opacity:1"
         d="m 381.58512,465.46355 -11.11168,14.64721"
         id="path4395" />
      <path
         style="fill:none;stroke:#000000;stroke-width:1px;stroke-linecap:butt;stroke-linejoin:miter;stroke-opacity:1"
         d="M 374.26151,482.88868 389.4138,465.96863"
         id="path4397" />
      <path
         style="fill:none;stroke:#000000;stroke-width:1px;stroke-linecap:butt;stroke-linejoin:miter;stroke-opacity:1"
         d="m 379.05974,485.91914 20.45559,-17.1726"
         id="path4399" />
      <path
         style="fill:none;stroke:#000000;stroke-width:1px;stroke-linecap:butt;stroke-linejoin:miter;stroke-opacity:1"
         d="m 385.12065,490.46482 26.01143,-15.65736"
         id="path4401" />
      <path
         style="fill:none;stroke:#000000;stroke-width:1px;stroke-linecap:butt;stroke-linejoin:miter;stroke-opacity:1"
         d="m 393.20188,496.52574 27.77919,-10.10153"
         id="path4403" />
      <path
         style="fill:none;stroke:#000000;stroke-width:1px;stroke-linecap:butt;stroke-linejoin:miter;stroke-opacity:1"
         d="m 409.36432,502.58665 19.19289,-1.01015"
         id="path4405" />
      <path
         style="fill:none;stroke:#000000;stroke-width:1px;stroke-linecap:butt;stroke-linejoin:miter;stroke-opacity:1"
         d="m 410.12193,514.70849 19.1929,7.07106"
         id="path4407" />
      <path
         style="fill:none;stroke:#000000;stroke-width:1px;stroke-linecap:butt;stroke-linejoin:miter;stroke-opacity:1"
         d="m 405.07117,520.01179 6.81853,29.04188"
         id="path4409" />
      <path
         style="fill:none;stroke:#000000;stroke-width:1px;stroke-linecap:butt;stroke-linejoin:miter;stroke-opacity:1"
         d="m 382.59527,559.91281 7.82869,-39.64849"
         id="path4411" />
      <path
         style="fill:none;stroke:#000000;stroke-width:1px;stroke-linecap:butt;stroke-linejoin:miter;stroke-opacity:1"
         d="m 407.84909,528.59808 12.6269,12.12183"
         id="path4413" />
      <path
         style="fill:none;stroke:#000000;stroke-width:1px;stroke-linecap:butt;stroke-linejoin:miter;stroke-opacity:1"
         d="m 388.65619,527.08285 -28.78935,25.75889"
         id="path4415" />
      <path
         style="fill:none;stroke:#000000;stroke-width:1px;stroke-linecap:butt;stroke-linejoin:miter;stroke-opacity:1"
         d="m 362.64476,554.60951 25.50635,-22.47589"
         id="path4417" />
      <path
         style="fill:none;stroke:#000000;stroke-width:1px;stroke-linecap:butt;stroke-linejoin:miter;stroke-opacity:1"
         d="m 386.63588,536.93184 -20.70812,19.1929"
         id="path4419" />
      <path
         style="fill:none;stroke:#000000;stroke-width:1px;stroke-linecap:butt;stroke-linejoin:miter;stroke-opacity:1"
         d="m 369.71583,556.88235 16.66752,-14.14213"
         id="path4421" />
      <path
         style="fill:#000000;stroke:#000000;stroke-width:1px;stroke-linecap:butt;stroke-linejoin:miter;stroke-opacity:1"
         d="m 384.36304,549.30621 -10.10153,9.09137 8.08123,1.51523 2.0203,-10.6066 z"
         id="path4423" />
      <path
         style="fill:#000000;stroke:#000000;stroke-width:1px;stroke-linecap:butt;stroke-linejoin:miter;stroke-opacity:1"
         d="m 393.70695,558.39758 3.78807,-19.1929 4.79823,16.66752 -8.5863,2.52538 z"
         id="path4425" />
      <path
         style="fill:none;stroke:#000000;stroke-width:1px;stroke-linecap:butt;stroke-linejoin:miter;stroke-opacity:1"
         d="m 361.38207,474.30238 -7.07107,12.12183 30.80965,21.46575"
         id="path4427" />
      <path
         style="fill:none;stroke:#000000;stroke-width:1px;stroke-linecap:butt;stroke-linejoin:miter;stroke-opacity:1"
         d="m 388.15111,500.81889 0,-5.05076 -15.65736,0.50507 -1.51523,-12.62691 -14.89975,0.25254"
         id="path4429" />
      <path
         style="fill:none;stroke:#000000;stroke-width:1px;stroke-linecap:butt;stroke-linejoin:bevel;stroke-opacity:1"
         d="m 356.96266,488.22355 -5.17704,6.78696 4.04061,3.53553 c -5.95749,5.57027 -14.34018,11.03171 -11.86929,17.1726 0.64833,1.61129 7.57614,3.03046 7.57614,3.03046 -0.92597,2.18866 -3.28146,5.9035 -2.77792,6.56599 0.70412,0.92638 13.44313,-0.67643 16.16244,3.78807"
         id="path4431"
         sodipodi:nodetypes="cccscsc" />
      <path
         style="fill:none;stroke:#000000;stroke-width:1px;stroke-linecap:butt;stroke-linejoin:miter;stroke-opacity:1"
         d="m 355.82623,550.31636 5.93464,-4.41942 c -3.65459,-0.28767 -5.19419,-0.80021 -7.08847,-3.51978 -2.4112,-3.46171 -2.19554,-4.59769 -2.0029,-5.44532 l 0.63135,-2.77792 c -1.31416,-2.92912 -6.94387,-4.70325 -2.02031,-8.08122"
         id="path4433"
         sodipodi:nodetypes="ccsscc" />
      <path
         style="fill:#000000;stroke:#000000;stroke-width:1px;stroke-linecap:butt;stroke-linejoin:miter;stroke-opacity:1"
         d="m 370.47344,542.48768 -4.79822,-32.82996 13.63706,-5.05076 3.03046,1.76777 -11.36422,8.83883 1.01015,26.51651 -1.51523,0.75761 z"
         id="path4435" />
      <path
         style="fill:#000000;stroke:#000000;stroke-width:1px;stroke-linecap:butt;stroke-linejoin:miter;stroke-opacity:1"
         d="m 362.13968,492.48513 11.8693,8.08122 -12.37437,0 0.30134,-2.98024 -4.34195,-1.81798 4.54568,-3.283 z"
         id="path4437"
         sodipodi:nodetypes="cccccc" />
      <path
         style="fill:#000000;stroke:#000000;stroke-width:1px;stroke-linecap:butt;stroke-linejoin:round;stroke-opacity:1"
         d="m 344.27261,514.96102 c 5.25933,0.40823 9.53555,-0.0405 14.36311,-0.15783 -3.96566,3.64307 -8.98469,7.9197 -9.65641,10.25936 l 2.55377,-6.31345 c -2.74248,-0.92641 -5.64542,-1.50875 -7.26047,-3.78808 z"
         id="path4439"
         sodipodi:nodetypes="ccccc" />
      <path
         style="fill:#000000;stroke:#000000;stroke-width:1px;stroke-linecap:butt;stroke-linejoin:round;stroke-opacity:1"
         d="m 349.67062,529.54511 8.15798,1.78493 -5.08157,4.88396 1.0589,-2.31262 -4.13531,-4.35627 z"
         id="path4441"
         sodipodi:nodetypes="ccccc" />
      <path
         style="fill:none;stroke:#000000;stroke-width:1px;stroke-linecap:butt;stroke-linejoin:miter;stroke-opacity:1"
         d="m 387.14096,537.68946 c 4.95902,3.25526 17.76939,1.87959 21.71828,-2.02031"
         id="path4443"
         sodipodi:nodetypes="cc" />
      <path
         style="fill:#000000;stroke:none"
         d="m 355.77888,550.64782 6.99215,-5.12968 c -2.26109,0.081 -4.66562,0.12048 -6.34502,-1.29426 5.03712,0.54462 10.286,-0.96985 14.83661,-1.64149 l -11.52205,10.13308 -3.96169,-2.06765 z"
         id="path4445"
         sodipodi:nodetypes="cccccc" />
      <path
         id="path4478"
         d="m 430.66314,512.68306 c 0,26.09571 -20.93552,47.25045 -46.7608,47.25045 -25.82528,0 -46.76081,-21.15474 -46.76081,-47.25045 0,-26.0957 20.93553,-47.25045 46.76081,-47.25045 25.82528,0 46.7608,21.15475 46.7608,47.25045 z"
         style="fill:none;stroke:none" />
    </g>
    <g
       transform="translate(37.142857,106.07143)"
       id="g4533">
      <text
         xml:space="preserve"
         style="font-size:6px;font-style:normal;font-weight:normal;fill:#000000;fill-opacity:1;stroke:none;font-family:Bitstream Vera Sans"
         id="text4535"><textPath
           xlink:href="#path4478"
           id="textPath4537"><tspan
   id="tspan4539">01100011011011110110010001100101011101000110000101101100011010110110010101110010</tspan></textPath></text>
      <path
         transform="matrix(0.96944166,0,0,0.96944166,-16.676888,25.949383)"
         d="m 461.13462,502.08157 c 0,26.91829 -21.59544,48.73986 -48.23478,48.73986 -26.63933,0 -48.23478,-21.82157 -48.23478,-48.73986 0,-26.91828 21.59545,-48.73986 48.23478,-48.73986 26.63934,0 48.23478,21.82158 48.23478,48.73986 z"
         sodipodi:ry="48.739861"
         sodipodi:rx="48.234783"
         sodipodi:cy="502.08157"
         sodipodi:cx="412.89984"
         id="path4541"
         style="fill:none;stroke:none"
         sodipodi:type="arc" />
      <path
         d="m 433.35545,497.03082 c 0,2.78946 -2.2613,5.05077 -5.05076,5.05077 -2.78946,0 -5.05077,-2.26131 -5.05077,-5.05077 0,-2.78946 2.26131,-5.05076 5.05077,-5.05076 2.78946,0 5.05076,2.2613 5.05076,5.05076 z"
         sodipodi:ry="5.0507627"
         sodipodi:rx="5.0507627"
         sodipodi:cy="497.03082"
         sodipodi:cx="428.30469"
         id="path4543"
         style="fill:none;stroke:#000000;stroke-width:1.10000002;stroke-linecap:round;stroke-miterlimit:4;stroke-opacity:1;stroke-dasharray:none"
         sodipodi:type="arc"
         transform="translate(-30.304576,11.616754)" />
      <path
         d="m 441.18413,497.78842 c 0,7.11312 -5.76632,12.87945 -12.87944,12.87945 -7.11312,0 -12.87945,-5.76633 -12.87945,-12.87945 0,-7.11312 5.76633,-12.87944 12.87945,-12.87944 7.11312,0 12.87944,5.76632 12.87944,12.87944 z"
         sodipodi:ry="12.879444"
         sodipodi:rx="12.879444"
         sodipodi:cy="497.78842"
         sodipodi:cx="428.30469"
         id="path4545"
         style="fill:none;stroke:#000000;stroke-width:1;stroke-linecap:round;stroke-miterlimit:4;stroke-opacity:1;stroke-dasharray:none"
         sodipodi:type="arc"
         transform="translate(-30.304576,11.616754)" />
      <path
         id="path4547"
         d="m 368.38486,468.75617 -4.72995,6.8089 m 30.05204,21.46575 -32.32488,-22.98097 1.55155,-3.11011"
         style="fill:none;stroke:#000000;stroke-width:1px;stroke-linecap:butt;stroke-linejoin:miter;stroke-opacity:1"
         sodipodi:nodetypes="ccccc" />
      <path
         id="path4549"
         d="m 366.68537,477.58538 7.32361,-10.6066"
         style="fill:none;stroke:#000000;stroke-width:1px;stroke-linecap:butt;stroke-linejoin:miter;stroke-opacity:1" />
      <path
         id="path4551"
         d="m 381.58512,465.46355 -11.11168,14.64721"
         style="fill:none;stroke:#000000;stroke-width:1px;stroke-linecap:butt;stroke-linejoin:miter;stroke-opacity:1" />
      <path
         id="path4553"
         d="M 374.26151,482.88868 389.4138,465.96863"
         style="fill:none;stroke:#000000;stroke-width:1px;stroke-linecap:butt;stroke-linejoin:miter;stroke-opacity:1" />
      <path
         id="path4555"
         d="m 379.05974,485.91914 20.45559,-17.1726"
         style="fill:none;stroke:#000000;stroke-width:1px;stroke-linecap:butt;stroke-linejoin:miter;stroke-opacity:1" />
      <path
         id="path4557"
         d="m 385.12065,490.46482 26.01143,-15.65736"
         style="fill:none;stroke:#000000;stroke-width:1px;stroke-linecap:butt;stroke-linejoin:miter;stroke-opacity:1" />
      <path
         id="path4559"
         d="m 393.20188,496.52574 27.77919,-10.10153"
         style="fill:none;stroke:#000000;stroke-width:1px;stroke-linecap:butt;stroke-linejoin:miter;stroke-opacity:1" />
      <path
         id="path4561"
         d="m 409.36432,502.58665 19.19289,-1.01015"
         style="fill:none;stroke:#000000;stroke-width:1px;stroke-linecap:butt;stroke-linejoin:miter;stroke-opacity:1" />
      <path
         id="path4563"
         d="m 410.12193,514.70849 19.1929,7.07106"
         style="fill:none;stroke:#000000;stroke-width:1px;stroke-linecap:butt;stroke-linejoin:miter;stroke-opacity:1" />
      <path
         id="path4565"
         d="m 405.07117,520.01179 6.81853,29.04188"
         style="fill:none;stroke:#000000;stroke-width:1px;stroke-linecap:butt;stroke-linejoin:miter;stroke-opacity:1" />
      <path
         id="path4567"
         d="m 382.59527,559.91281 7.82869,-39.64849"
         style="fill:none;stroke:#000000;stroke-width:1px;stroke-linecap:butt;stroke-linejoin:miter;stroke-opacity:1" />
      <path
         id="path4569"
         d="m 407.84909,528.59808 12.6269,12.12183"
         style="fill:none;stroke:#000000;stroke-width:1px;stroke-linecap:butt;stroke-linejoin:miter;stroke-opacity:1" />
      <path
         id="path4571"
         d="m 388.65619,527.08285 -28.78935,25.75889"
         style="fill:none;stroke:#000000;stroke-width:1px;stroke-linecap:butt;stroke-linejoin:miter;stroke-opacity:1" />
      <path
         id="path4573"
         d="m 362.64476,554.60951 25.50635,-22.47589"
         style="fill:none;stroke:#000000;stroke-width:1px;stroke-linecap:butt;stroke-linejoin:miter;stroke-opacity:1" />
      <path
         id="path4575"
         d="m 386.63588,536.93184 -20.70812,19.1929"
         style="fill:none;stroke:#000000;stroke-width:1px;stroke-linecap:butt;stroke-linejoin:miter;stroke-opacity:1" />
      <path
         id="path4577"
         d="m 369.71583,556.88235 16.66752,-14.14213"
         style="fill:none;stroke:#000000;stroke-width:1px;stroke-linecap:butt;stroke-linejoin:miter;stroke-opacity:1" />
      <path
         id="path4579"
         d="m 384.36304,549.30621 -10.10153,9.09137 8.08123,1.51523 2.0203,-10.6066 z"
         style="fill:#000000;stroke:#000000;stroke-width:1px;stroke-linecap:butt;stroke-linejoin:miter;stroke-opacity:1" />
      <path
         id="path4581"
         d="m 393.70695,558.39758 3.78807,-19.1929 4.79823,16.66752 -8.5863,2.52538 z"
         style="fill:#000000;stroke:#000000;stroke-width:1px;stroke-linecap:butt;stroke-linejoin:miter;stroke-opacity:1" />
      <path
         id="path4583"
         d="m 361.38207,474.30238 -7.07107,12.12183 30.80965,21.46575"
         style="fill:none;stroke:#000000;stroke-width:1px;stroke-linecap:butt;stroke-linejoin:miter;stroke-opacity:1" />
      <path
         id="path4585"
         d="m 388.15111,500.81889 0,-5.05076 -15.65736,0.50507 -1.51523,-12.62691 -14.89975,0.25254"
         style="fill:none;stroke:#000000;stroke-width:1px;stroke-linecap:butt;stroke-linejoin:miter;stroke-opacity:1" />
      <path
         sodipodi:nodetypes="cccscsc"
         id="path4587"
         d="m 356.96266,488.22355 -5.17704,6.78696 4.04061,3.53553 c -5.95749,5.57027 -14.34018,11.03171 -11.86929,17.1726 0.64833,1.61129 7.57614,3.03046 7.57614,3.03046 -0.92597,2.18866 -3.28146,5.9035 -2.77792,6.56599 0.70412,0.92638 13.44313,-0.67643 16.16244,3.78807"
         style="fill:none;stroke:#000000;stroke-width:1px;stroke-linecap:butt;stroke-linejoin:bevel;stroke-opacity:1" />
      <path
         sodipodi:nodetypes="ccsscc"
         id="path4589"
         d="m 355.82623,550.31636 5.93464,-4.41942 c -3.65459,-0.28767 -5.19419,-0.80021 -7.08847,-3.51978 -2.4112,-3.46171 -2.19554,-4.59769 -2.0029,-5.44532 l 0.63135,-2.77792 c -1.31416,-2.92912 -6.94387,-4.70325 -2.02031,-8.08122"
         style="fill:none;stroke:#000000;stroke-width:1px;stroke-linecap:butt;stroke-linejoin:miter;stroke-opacity:1" />
      <path
         id="path4591"
         d="m 370.47344,542.48768 -4.79822,-32.82996 13.63706,-5.05076 3.03046,1.76777 -11.36422,8.83883 1.01015,26.51651 -1.51523,0.75761 z"
         style="fill:#000000;stroke:#000000;stroke-width:1px;stroke-linecap:butt;stroke-linejoin:miter;stroke-opacity:1" />
      <path
         sodipodi:nodetypes="cccccc"
         id="path4593"
         d="m 362.13968,492.48513 11.8693,8.08122 -12.37437,0 0.30134,-2.98024 -4.34195,-1.81798 4.54568,-3.283 z"
         style="fill:#000000;stroke:#000000;stroke-width:1px;stroke-linecap:butt;stroke-linejoin:miter;stroke-opacity:1" />
      <path
         sodipodi:nodetypes="ccccc"
         id="path4595"
         d="m 344.27261,514.96102 c 5.25933,0.40823 9.53555,-0.0405 14.36311,-0.15783 -3.96566,3.64307 -8.98469,7.9197 -9.65641,10.25936 l 2.55377,-6.31345 c -2.74248,-0.92641 -5.64542,-1.50875 -7.26047,-3.78808 z"
         style="fill:#000000;stroke:#000000;stroke-width:1px;stroke-linecap:butt;stroke-linejoin:round;stroke-opacity:1" />
      <path
         sodipodi:nodetypes="ccccc"
         id="path4597"
         d="m 349.67062,529.54511 8.15798,1.78493 -5.08157,4.88396 1.0589,-2.31262 -4.13531,-4.35627 z"
         style="fill:#000000;stroke:#000000;stroke-width:1px;stroke-linecap:butt;stroke-linejoin:round;stroke-opacity:1" />
      <path
         sodipodi:nodetypes="cc"
         id="path4599"
         d="m 387.14096,537.68946 c 4.95902,3.25526 17.76939,1.87959 21.71828,-2.02031"
         style="fill:none;stroke:#000000;stroke-width:1px;stroke-linecap:butt;stroke-linejoin:miter;stroke-opacity:1" />
      <path
         sodipodi:nodetypes="cccccc"
         id="path4601"
         d="m 355.77888,550.64782 6.99215,-5.12968 c -2.26109,0.081 -4.66562,0.12048 -6.34502,-1.29426 5.03712,0.54462 10.286,-0.96985 14.83661,-1.64149 l -11.52205,10.13308 -3.96169,-2.06765 z"
         style="fill:#000000;stroke:none" />
      <path
         style="fill:none;stroke:none"
         d="m 430.66314,512.68306 c 0,26.09571 -20.93552,47.25045 -46.7608,47.25045 -25.82528,0 -46.76081,-21.15474 -46.76081,-47.25045 0,-26.0957 20.93553,-47.25045 46.76081,-47.25045 25.82528,0 46.7608,21.15475 46.7608,47.25045 z"
         id="path4603" />
    </g>
    <path
       style="fill:none;stroke:#000000;stroke-width:1px;stroke-linecap:butt;stroke-linejoin:miter;stroke-opacity:1"
       d="M 453.98492,573.69252 580,582.36218 476.22754,593.37053 c 0,0 -21.96103,-19.25871 -22.24262,-19.67801 z"
       id="path4607"
       sodipodi:nodetypes="cccc" />
    <path
       style="fill:none;stroke:#000000;stroke-width:1px;stroke-linecap:butt;stroke-linejoin:miter;stroke-opacity:1"
       d="M 480.16967,599.24076 482.1837,614.92335 565,607.36218 480.16967,599.24076 z"
       id="path4609"
       sodipodi:nodetypes="cccc" />
    <path
       style="fill:none;stroke:#000000;stroke-width:1px;stroke-linecap:butt;stroke-linejoin:miter;stroke-opacity:1"
       d="M 481.21965,619.82953 545,622.36218 l -65.70845,7.27972 1.9281,-9.81237 z"
       id="path4611"
       sodipodi:nodetypes="cccc" />
  </g>
</svg>
